<?xml version="1.0" encoding="UTF-8"?>
<svg id="Layer_1" xmlns="http://www.w3.org/2000/svg" version="1.1" viewBox="0 0 1000 1000">
  <!-- Generator: Adobe Illustrator 30.1.0, SVG Export Plug-In . SVG Version: 2.1.1 Build 136)  -->
  <defs>
    <style>
      .st0 {
        fill: #c59f73;
      }

      .st1 {
        fill: #18625b;
      }
    </style>
  </defs>
  <path class="st1" d="M420.74,318.09c1.53-3.56,3.12-6.99,4.48-10.51.35-1.29,1.63-2.11,2.95-1.88,7.94.08,15.88.02,23.82.05,1.23,0,2.11-.07,2.81-1.43.93-1.92,3.22-2.75,5.16-1.88,1,.51,2.22.19,2.84-.75,6.02-6.84,12.74-13,19.07-19.55.73-1.05,2.16-1.33,3.23-.64,3.34,1.58,6.78,2.94,10.15,4.37,3.33-4.01,6.23-3.95,9.21.14,3.52-1.5,7.08-2.94,10.57-4.56,1.02-.63,2.35-.36,3.04.62,5.14,5.24,10.37,10.4,15.56,15.59.51.52.9,1.18,1.38,1.68,1.52,1.6,2.63,3.92,5.71,2.91,1.61-.4,3.26.43,3.9,1.95.67,1.44,1.65,1.53,2.96,1.53,8.16-.04,16.32.01,24.48-.05,1.18-.21,2.32.52,2.62,1.68,1.21,3.18,2.66,6.27,3.98,9.41.21.86,1.02,1.44,1.91,1.33,2.31-.19,4.33,1.52,4.53,3.83.02.19.02.38,0,.57-.1.96.53,1.85,1.48,2.07,3.47,1.3,6.86,2.82,10.35,4.04,1.62.31,2.7,1.85,2.44,3.47-.14,8.08-.03,16.16-.08,24.24-.18,1.16.48,2.29,1.58,2.71,2.79,1.4,2.98,4.21.81,7.79,5.99,7.07,12.87,13.28,19.3,19.92,1.06.82,1.37,2.28.73,3.46-2.5,5.98-2.47,6.02,2.09,10.51,1.15,1.14,2.46,2.12,3.92,3.36-2.71,2.64-4.95,4.9-7.29,7.05-1,.68-1.27,2.04-.62,3.06,1.22,2.61,2.14,5.35,3.34,7.97.53.91.27,2.08-.59,2.68-4.28,4.21-8.53,8.45-12.75,12.73-2.17,2.2-4.21,4.53-6.36,6.75-.54.48-.73,1.25-.47,1.93.66,2.77-.06,4.52-2.59,5.65-1.31.58-1.03,1.44-1.03,2.32-.02,8.3-.11,16.61.06,24.9.26,1.7-.85,3.3-2.53,3.67-2.84,1.06-5.57,2.41-8.39,3.54-.93.25-1.56,1.11-1.5,2.07.07,2.21-1.66,4.07-3.87,4.14h-.18c-1.16.07-1.47.63-1.82,1.5-1.54,3.93-3.17,7.82-4.66,11.77-.26,1.09-1.31,1.8-2.42,1.63-9.13-.06-18.25-.02-27.38-.05-1.02-.19-2.04.34-2.46,1.3-.81,1.78-2.79,2.71-4.68,2.19-1.08-.3-2.23.12-2.85,1.06-5.51,6.51-11.96,12.1-17.81,18.27-.79.84-1.49.62-2.37.26-4.05-1.64-8.12-3.23-12.15-4.83-3.61,3.03-3.89,3.05-8.2.38-.75-.46-1.28-.02-1.86.21-3.52,1.37-7.04,2.75-10.54,4.19-.96.59-2.21.38-2.92-.49-5.34-5.46-10.78-10.82-16.17-16.23-.46-.46-.73-1.1-1.18-1.57-.98-1.02-1.71-2.17-3.67-1.36-1.97.82-4.24-.08-5.12-2.02-.43-.94-1.43-1.48-2.45-1.33-8.61.04-17.21-.03-25.82.07-1.4.22-2.73-.71-3-2.1-1.38-3.83-3.01-7.57-4.49-11.36-.2-.86-.96-1.48-1.85-1.49-2.03-.08-3.66-1.73-3.71-3.76-.01-1.19-.83-2.23-1.99-2.52-3.04-1.18-5.97-2.64-9.01-3.81-1.16-.3-1.9-1.43-1.72-2.62.06-8.52.02-17.05.05-25.57,0-1.18-.1-1.99-1.42-2.59-1.95-.83-2.93-3.01-2.26-5.02.3-.89.05-1.88-.64-2.52-5.89-6.55-12.27-12.64-18.53-18.83-1.22-.88-1.52-2.56-.7-3.81,1.19-2.45,2.02-5.08,3.16-7.57.54-.91.27-2.08-.6-2.67-2.37-2.23-4.65-4.55-7.11-6.97,2.8-2.66,5.42-5.16,7.98-7.6-.52-2.18-1.3-4.28-2.3-6.28-.87-1.23-.57-2.93.66-3.8h0c4.84-4.59,9.54-9.33,14.24-14.07,1.81-1.83,3.46-3.81,5.17-5.71-2.37-4.14-2.1-5.52,1.72-8.23.9-.64.62-1.43.62-2.19.02-8.23.06-16.46-.02-24.68-.22-1.33.63-2.6,1.94-2.91,3.62-1.3,7.17-2.82,10.75-4.25.73-.29,1.39-.43,1.52-1.56.42-3.76,1.91-4.96,5.87-4.93v.03h0ZM486.85,317.15c-.64.75-1.3,1.55-1.98,2.33-4.29,4.89-8.85,9.53-13.34,14.22-.97,1.11-2.39,1.72-3.86,1.65-6.3-.04-12.6.14-18.9.15-1.57,0-2.52.36-3.09,2.02-.96,2.79-2.4,5.42-3.31,8.23-.37,1.27-1.36,2.26-2.62,2.63-3.17,1.26-6.28,2.65-9.45,3.88-1.02.26-1.65,1.27-1.45,2.3.17,7.18.18,14.37.31,21.55.09,1.18-.35,2.33-1.2,3.15-4.54,4.58-8.98,9.26-13.5,13.85-1.25.96-1.58,2.72-.76,4.07,1.25,2.52,2.15,5.2,3.29,7.77.51,1.07.5,2.31,0,3.37-1.76,3.81-3.28,7.72-4.56,11.72,5.61,5.44,11.12,10.82,16.69,16.15.69.67,1.03,1.62.93,2.57.05,6.74.19,13.48.14,20.22-.16,1.26.67,2.44,1.92,2.69,2.5.92,4.94,2,7.4,3.04,1.37.52,2.45,1.61,2.97,2.98,1.29,3.31,2.73,6.56,4.03,9.87.28,1.02,1.29,1.66,2.33,1.48,7.04-.16,14.09-.18,21.13-.33,1.25-.07,2.47.44,3.31,1.38,4.45,4.54,9,8.97,13.39,13.56.96,1.35,2.8,1.71,4.19.82,2.93-1.41,5.97-3.31,9.05-3.48,3.09-.17,6.02,2.19,9.05,3.36.28.09.56.21.82.35,1.2.73,2.09.45,3.08-.57,4.58-4.71,9.27-9.33,13.87-14.02.84-.94,2.06-1.45,3.32-1.38,6.89.16,13.79.19,20.68.36,1.52.04,2.47-.27,2.95-1.88.58-1.68,1.26-3.32,2.02-4.93,3.33-7.71,1.29-6.01,9.32-9.4,1.01-.47,2.04-.88,3.09-1.24,1.12-.22,1.86-1.29,1.68-2.42.01-6.74.17-13.48.22-20.22-.06-1.17.41-2.31,1.29-3.09,4.57-4.33,9.06-8.76,13.55-13.18,2.96-2.91,2.94-2.92,1.35-6.86-1.24-3.08-3.44-6.19-3.41-9.27.04-3.17,2.15-6.37,3.58-9.44.79-1.37.44-3.11-.81-4.07-4.58-4.65-9.08-9.36-13.64-14.02-.66-.58-1.03-1.43-1.02-2.31.1-7.33.07-14.67.27-22,.2-1.17-.54-2.31-1.7-2.58-3.23-1.29-6.42-2.68-9.65-3.99-.96-.32-1.72-1.09-2.02-2.06-1.3-3.53-2.84-6.97-4.44-10.8-7,0-14.04-.06-21.08.04-1.47.07-2.89-.56-3.83-1.7-4.72-5.09-9.54-10.1-14.26-15.2-.63-.92-1.89-1.14-2.81-.51-.02.01-.03.02-.05.04-3.07,1.69-6.56,2.71-8.71,5.82-.54.78-1.3,1.39-2.19,1.74-2.43-1.26-3.07-4.36-5.87-5.27-2.52-.82-4.94-1.98-7.72-3.12h0v-.02h.01ZM399.93,443.21c.53-1.4,1.02-2.77,1.57-4.11,4.21-10.35,8.44-20.69,12.67-31.03.44-.85.48-1.85.11-2.73-2.05-4.91-3.97-9.88-5.99-14.8-2.81-6.85-5.67-13.67-8.49-20.47-.58.62-1.21,1.33-1.87,1.99-5.19,5.19-10.38,10.39-15.57,15.58-.49.49-1.42.94-.99,1.8,1.95,3.91,2.06,8.73,5.84,11.73,1.13.9,2.15,1.95,3.5,3.18-4.92,3.06-6.37,7.82-8.27,12.31-.69,1.63-1.21,3.35-1.99,4.93-.55.9-.29,2.08.59,2.67,5.23,5.15,10.38,10.39,15.62,15.52,1.1,1.07,1.61,2.67,3.26,3.44h0ZM609.33,404.25c1.36-1.22,2.41-2.27,3.57-3.18,2.04-1.59,2.94-3.84,3.78-6.14.51-1.39.88-2.83,1.51-4.16.68-1.08.42-2.51-.61-3.28-5.36-5.23-10.62-10.56-15.93-15.84-.44-.44-.77-1.13-1.72-1.03-4.75,11.67-9.51,23.39-14.33,35.09-.27.84-.15,1.76.33,2.5,4.33,10.62,8.68,21.23,13.04,31.84.42,1.02.31,2.31,1.41,3.17,1.17-1.33,2.22-2.65,3.41-3.84,5.01-5.06,10.05-10.09,15.1-15.1.69-.68,1.37-1.2.78-2.42-2.91-6.06-3.87-13.19-10.32-17.61h-.02ZM454.14,308.63c-8.38,0-16.75,0-25.11-.01-.99,0-1.19.69-1.48,1.37-1.16,2.72-2.3,5.45-3.51,8.15-.48.99-.54,2.12-.18,3.16,1.17,3.87-1.86,7.48-5.39,6.19-2.14-.78-3.66-.19-5.4.51-2.68,1.07-5.35,2.17-8.06,3.18-.94.22-1.57,1.12-1.43,2.08.06,8,.02,16,.04,24,0,2.42.74,2.9,3,1.97,9.44-3.89,18.94-7.68,28.28-11.81,1.96-.87,4.48-1.34,5.51-3.91,4.47-11.11,9.02-22.19,13.55-33.28.3-.48.37-1.07.18-1.6h0ZM545.8,308.64c-.13.66,0,1.34.38,1.91,4.12,10.14,8.43,20.2,12.3,30.44,1.09,3.02,3.47,5.39,6.49,6.48,9.49,3.98,19.01,7.89,28.52,11.81,2.16.89,2.87.45,2.87-1.85.02-8.07-.01-16.15.03-24.22.14-.89-.41-1.74-1.27-1.97-3.46-1.31-6.9-2.7-10.32-4.09-.66-.31-1.43-.29-2.07.07-1.67.96-3.77.73-5.18-.58-1.57-1.36-2.09-3.57-1.29-5.48.32-.73.32-1.56,0-2.29-1.27-2.83-2.52-5.68-3.65-8.57-.34-1.16-1.49-1.87-2.68-1.67-5.19.07-10.38.03-15.57.03h-8.57v-.02h.01ZM403.71,479.65c3.32,1.43,6.72,2.88,10.11,4.36.48.18,1.02.11,1.43-.19,2.45-1.22,4.36-1,5.91.57,1.56,1.69,1.8,4.21.57,6.16-.42.69-.43,1.55-.02,2.24,1.39,3.43,2.82,6.85,4.11,10.32.22,1.03,1.2,1.7,2.24,1.55,4.97-.08,9.94-.03,14.91-.03h11.42c-.03-.43-.1-.86-.21-1.28-4.66-11.37-9.33-22.74-14-34.11-.23-.55-.41-1.1-1.06-1.32-2.65-.91-5.02-2.43-7.56-3.55-4.95-2.18-9.97-4.19-14.97-6.26-4.22-1.75-8.46-3.47-12.86-5.28v26.84l-.02-.02h0ZM596.37,452.83c-1.03.39-1.78.65-2.52.97-10.17,4.38-20.58,8.19-30.56,13.02-1.97.76-3.53,2.31-4.3,4.28-3.45,8.82-7.1,17.55-10.69,26.32-.94,2.31-1.9,4.61-2.84,6.91.32.15.44.26.57.26,8.75.02,17.5,0,26.26.06,1.14,0,1.52-.55,1.88-1.45,1.37-3.52,2.77-7.02,4.2-10.51.4-.85.37-1.83-.06-2.66-1.02-1.9-.64-4.26.93-5.74,1.47-1.49,3.78-1.76,5.55-.63.61.41,1.4.44,2.05.1,2.77-1.24,5.55-2.46,8.37-3.6.79-.24,1.3-1.02,1.19-1.84-.03-8.37-.02-16.74-.02-25.48h0ZM535.83,508.33c-11.81-4.88-23.44-9.67-35.04-14.51-.77-.25-1.61-.14-2.29.31-6.64,2.74-13.28,5.48-19.91,8.24-4.75,1.97-9.5,3.94-14.4,5.97,5.69,6.71,11.92,12.49,17.87,18.54.69.7,1.31.36,2.01.08,3.23-1.29,6.47-2.56,9.72-3.82.85-.25,1.55-.87,1.89-1.69.65-1.73,2.35-2.83,4.2-2.71,1.76-.09,3.39.91,4.11,2.51.3.75.9,1.35,1.65,1.65,3.53,1.35,7.03,2.76,10.52,4.2.72.4,1.63.23,2.15-.41,5.87-5.93,11.88-11.73,17.52-18.36h0ZM464.22,304.72c.15.14.31.27.49.37,8.61,3.57,17.24,7.11,25.84,10.73,1.17.49,1.76.01,2.46-.72,2.39-2.49,4.81-4.96,7.45-7.66,2.59,2.68,4.94,5.03,7.19,7.48.6.86,1.76,1.11,2.67.58,7.98-3.36,15.98-6.66,23.98-9.98.51-.21,1.17-.23,1.43-.86-5.97-6.78-12.46-13.05-18.79-19.45-.54-.63-1.46-.76-2.15-.3-2.23.99-4.5,1.9-6.73,2.89-1.86.83-3.72,1.5-5.18,3.2-1.72,2-4.92,1.58-6.65-.54-.43-.68-1.04-1.23-1.75-1.6-3.15-1.3-6.27-2.64-9.38-4.04-.62-.42-1.46-.3-1.95.28-6.39,6.46-12.94,12.75-18.94,19.63h.01ZM573.5,353.87c0,5.95.27,11.49-.09,16.99-.27,4.29.61,7.61,4.14,10.4,3.92,3.1,7.46,6.68,11.03,9.94,2.93-7.39,6.58-15.28,9.52-23.57-2.81-.82-4.27-2.54-4.17-5.33l-20.43-8.44h0ZM426.67,354.23c-.41-.01-.83.01-1.23.08-6.09,2.51-12.19,5.03-18.27,7.55-.48.2-1.03.33-1.03,1,.02,2.81-1.76,4.17-4.31,5.02,3.34,8.1,6.62,16.05,9.57,23.2,4.84-4.48,9.73-9.01,14.62-13.55.45-.4.69-.97.67-1.56-.02-7.18-.01-14.35-.01-21.74h-.01ZM456.38,311.18c-2.91,7.27-5.77,14.43-8.67,21.68,5.86,0,11.42-.16,16.97.07,2.56.23,5.08-.82,6.7-2.82,4.2-4.71,8.62-9.23,13.09-13.98-7.17-2.97-14.07-5.82-20.97-8.67-1.89,3.68-3,4.28-7.11,3.73h-.01ZM463.49,505.73c7.43-3.07,14.86-6.15,22.51-9.32-4.39-3.77-8.01-7.97-11.84-11.96-2.24-2.33-4.49-3.85-7.9-3.18-1.55.16-3.11.18-4.66.05h-13.48c2.9,7.22,5.6,13.93,8.28,20.58,4.68-.12,5.27.2,7.1,3.83h-.01ZM515.61,316.11c3.67,3.96,7.35,7.68,10.72,11.66,3.01,3.55,6.23,6.2,11.26,5.1.3-.01.59,0,.88.05h13.88c-3.02-7.5-5.93-14.74-8.91-22.16-1.38.72-3,.82-4.46.27-1.52-.63-2.16-2.09-3-3.35-6.81,2.82-13.51,5.58-20.37,8.42h0ZM427.5,459.74c0-6.47-.08-12.61.04-18.75.05-2-.88-3.9-2.48-5.09-1.78-1.56-3.39-3.31-5.1-4.96-2.85-2.75-5.72-5.48-8.75-8.38-2.76,7.03-5.9,13.63-8.25,20.48,3.31,2.31,3.71,3.57,2.48,7.58l22.06,9.12ZM597.2,442.94c-2.78-6.74-5.53-13.42-8.27-20.09-.37.12-.53.13-.62.21-5.02,4.83-10.03,9.67-15.04,14.51-.4.33-.64.82-.66,1.35v20.79l22.07-9.12c-1.28-3.83-.85-5.15,2.52-7.64h0ZM551.95,481.21h-21.49c-.67-.05-1.32.18-1.81.65-4.83,4.77-9.68,9.52-14.77,14.52,7.55,3.13,14.62,6.06,21.73,9.01.4-1.43,1.42-2.61,2.78-3.21,1.63-.59,3.44-.37,4.89.59,2.85-7.1,5.64-14.01,8.67-21.54h0v-.02ZM622.85,404.35c0-2.42-1.94-4.39-4.36-4.4-2.4-.02-4.36,1.91-4.38,4.31-.02,2.38,1.88,4.34,4.27,4.38,2.42.05,4.42-1.87,4.47-4.29h0ZM504.75,316.61c.1-2.34-1.72-4.33-4.07-4.42h-.2c-2.39-.02-4.35,1.9-4.37,4.3-.02,2.35,1.83,4.28,4.18,4.37,2.35.11,4.34-1.71,4.45-4.06v-.18h.01ZM385.87,404.25c-.02-2.4-1.98-4.33-4.38-4.31s-4.33,1.98-4.31,4.38c.02,2.38,1.94,4.3,4.32,4.31,2.41,0,4.36-1.95,4.36-4.35v-.02h.01Z"/>
  <path class="st1" d="M279.29,579.48v17.95h20.95c-.49-2.81-.63-5.67-.4-8.51.06-.51.07-1.04.18-1.54,1.02-5.03,3.2-6.93,8.36-7.67,4.53-.48,9.11-.36,13.6.36v17.33h19.75v-27.2c2.24-.23,4.49-.3,6.73-.21v16.14c1.01-.28,1.85-.98,2.29-1.93,4.13-6.12,12.38-6.34,16.63-3.97,3.7,2.07,4.51,5.88,4.96,9.64.16,2.54.18,5.09.06,7.64h10.72v-17.98h6.44v17.98h25.8c-1.07-4.72-.39-9.29.32-13.89.36-2.39,1.37-3.64,3.84-3.99,4.07-.58,8.1-.96,12.12.13,2.61.53,4.68,2.51,5.32,5.1.39,1.2.64,2.43.75,3.69.09,4.95.04,9.9.04,14.86-.77.29-1.6.37-2.4.23-55.93.04-111.86.07-167.79.1-2.52.07-5.04-.26-7.46-.98-2.18-.64-3.89-2.34-4.54-4.52-1.25-4.28-1.32-8.82-.2-13.13.85-3.65,3.35-5.19,6.75-5.78,4.5-.78,9.01-.43,13.52-.12,1.17.08,2.33.17,3.67.27h-.01ZM348.5,597.43h17.23c0-1.97.14-3.82-.03-5.65-.48-5.51-4.92-7.98-9.4-5.08-3.82,2.48-6.18,6.22-7.8,10.73h0ZM272.69,585.73c-2.89-.22-5.53-.54-8.16.18-1.5.31-2.65,1.52-2.88,3.03-.31,1.68-.31,3.4.02,5.08.24,1.59,1.46,2.86,3.04,3.16,2.62.64,5.24.28,7.99.37v-11.82h0ZM431.28,597.56c0-2.22.02-4.21,0-6.2-.05-4.86-4.24-7.58-8.8-5.75-.49.18-.82.64-.83,1.16-.71,3.57-.63,7.25.23,10.79h9.4,0ZM315.42,585.96c-1.8,0-3.35-.09-4.88.03-1.62.12-3.11.75-3.55,2.5-.88,2.95-.7,6.11.5,8.94h7.93v-11.46h0Z"/>
  <path class="st1" d="M548.35,657.79v-27.88h6.48v33.84h-32.27c-10.6.01-21.2-.07-31.8-.01-10.76.05-21.52.01-32.27.01h-96.68c-.41,3.85-.45,7.77-3.76,10.38-2.25,1.78-4.9,1.33-7.69,1.06-.24-1.85-.27-3.73-.1-5.59,4.34-.8,4.81-1.38,4.82-5.86v-23.9h6.5v17.77h75.25c0-2.36.19-4.74-.05-7.07-.3-2.96-1.92-4.2-4.95-4.21-3.26-.01-6.53.02-9.79,0-2.8-.02-5.13-3.97-3.91-6.41,1.79-3.56,3.83-6.99,6.1-10.27.93-1.36,1.9-1.7,3.25-.6.47.36.99.65,1.55.87,1.53.65,1.48,1.54.62,2.77-1.69,2.41-3.16,4.97-4.37,7.65h8.03c5.8,0,8.72,2.47,9.84,8.15.59,3,.2,6.04.44,9.16h36.45c-.75-5.02-.52-10.14.67-15.08.18-1.26,1.15-2.25,2.41-2.45,3.75-.93,7.65-1.13,11.48-.58,4.76.68,7.26,3.25,7.79,8.01.23,2.43.34,4.88.31,7.32,0,1.95.91,2.92,2.81,2.92,14.17.01,28.33,0,42.83,0h.01ZM496.1,657.81c0-2.26-.01-4.25,0-6.24.04-5.71-2.63-7.01-8.61-6.23-.61.04-1.09.54-1.11,1.15-.68,3.75-.6,7.6.24,11.32h9.48,0Z"/>
  <path class="st1" d="M747.59,663.75h-150.89c-8.3,0-10.91-2.36-11.7-10.51-1-10.3,2.62-14.29,13.02-14.06,3.82-.09,7.65.15,11.43.71v17.74h72.28c.11-2.41.09-4.82-.05-7.23-.29-2.81-1.97-4.06-4.83-4.08-3.34-.01-6.68.02-10.01-.01-2.63-.03-4.95-3.99-3.81-6.34,1.68-3.37,3.58-6.62,5.7-9.74.5-.68,1.05-1.32,1.63-1.93.3,0,.47-.05.59,0,3.13,1.58,3.81,3.84,2.02,6.78-.95,1.57-1.81,3.2-2.96,5.25h7.31c7.4,0,10.94,3.53,11.03,11.03.03,2.06,0,4.12,0,6.31h36.54c-.5-3.81-.5-7.67.01-11.48,1-5.89,1.42-6.36,7.37-6.8,2.51-.27,5.05-.2,7.54.19,4.65.9,6.85,3.18,7.44,7.85.67,5.31.14,10.64.33,16.31h.01ZM602.87,645.58c-1.6-.39-3.25-.52-4.9-.4-5.21.02-6.96,1.94-6.47,7.11.08.87.41,1.72.57,2.59.23,1.36,1.32,2.41,2.69,2.6,2.68.59,5.39.32,8.1.32v-12.22h.01ZM741.01,657.72c0-2.38.04-4.66,0-6.93-.12-5.81-4.24-6.1-8.89-5.4-.62.09-.77.57-.86,1.12-.66,3.72-.58,7.52.23,11.21h9.53-.01Z"/>
  <path class="st1" d="M631.91,579.56v17.95h23.17v-17.96h6.61v18.01h25.44v-17.97h6.54v17.93h23.26c.39-6.26,4.09-10.61,10.57-10.5,5.29.09,8.78,4.02,9.51,10.44,1.2.42,2.46.08,3.68.23,1.8-9.41-2.46-16.68-12.37-15.82-3.09.27-6.15.75-9.4,1.15-.2-1.67-.38-3.26-.6-5.12,6.47-1.51,12.82-3.29,19.41-1.02,5.59,1.92,8.24,6.29,9.35,11.72,1,4.89.32,9.86.49,14.7-.82.36-1.73.48-2.61.33-41.54.01-83.07.01-124.61,0-1.48,0-2.96-.1-4.43-.29-5.34-.64-7.83-3.07-8.36-8.39-.42-3.31-.23-6.68.56-9.92.88-3.31,3.1-4.9,6.25-5.53,3.81-.6,7.68-.72,11.52-.34,1.91.11,3.82.25,6.02.4ZM625.2,597.48v-11.78c-1.97-.3-3.96-.38-5.95-.22-3.89.23-5.24,1.63-5.34,5.54-.02.81.03,1.62.15,2.43.34,2.44,1.52,3.77,4.01,3.99,2.32.21,4.68.04,7.13.04h0ZM723.78,597.51h6.49c-.07-2.93-1.25-4.54-3.24-4.53-1.99,0-3.11,1.53-3.24,4.53h-.01Z"/>
  <path class="st1" d="M574.89,597.56h10.68v-18.04h6.5v24.05h-68.85c-.29,1.64-.51,3.02-.79,4.38-1.03,4.98-4.34,7.68-9.41,7.69-2.69-.09-5.37-.38-8.02-.86-.23-1.96-.23-3.94.02-5.9,1.94.24,3.76.5,5.59.67,4.83.44,5.98-.71,5.69-5.66-1.19-.35-2.44-.43-3.67-.25-7.97-.03-11.07-2.92-11.28-10.89-.1-2.82.24-5.63,1.01-8.34.66-2.99,3.15-5.23,6.19-5.58,4.91-.79,9.73-.03,14.74.87v17.85h20.99v-27.29h6.67v16.76c1.05-1.17,1.83-1.92,2.48-2.78,3.38-4.63,9.39-6.52,14.81-4.64,5.17,1.77,6.02,6.31,6.6,10.85.16,2.37.18,4.74.05,7.11h0ZM550.83,597.52h17.48c.22-2.17.19-4.35-.12-6.51-.87-5.3-5.64-7.29-9.95-4.12-3.56,2.62-5.77,6.26-7.42,10.62h.01ZM516.52,597.72v-12.56c-2.62-.06-5.57-1.14-7.36,1.52-1.77,2.66-1.93,6.08-.4,8.88,1.64,3.21,4.95,1.73,7.76,2.16h0Z"/>
  <path class="st1" d="M323.6,657.61c-.73-4.41-.63-8.92.28-13.29.85-3.87.84-3.94,4.72-4.63,2.92-.51,5.91-.6,8.86-.27,5.44.59,8.06,3.27,8.59,8.71.09.96.16,1.92.16,2.88.02,4.15,0,8.29,0,12.39-.75.4-1.62.52-2.46.34-25.73.02-51.47.02-77.2.01-8.73,0-11.36-2.47-11.92-11.19-.06-1.03-.05-2.07.02-3.1.5-7.44,3.1-9.96,10.58-10.21,4.63-.15,9.27.03,13.87.53v17.82h44.5ZM272.51,645.47c-2.03-.32-4.09-.4-6.14-.24-3.7.21-5.18,1.77-5.16,5.51.04,5.95,1.74,6.79,5.05,6.99,2.05.12,4.1.02,6.24.02v-12.28h.01ZM330.17,657.8c1.65,0,3.19.04,4.73-.01,1.56.13,3.13.05,4.67-.24,0-2-.08-3.91.01-5.82.27-5.67-2.4-7.2-8.58-6.38-.74.1-.94.49-1.05,1.15-.64,3.75-.57,7.58.21,11.3h0Z"/>
  <path class="st1" d="M489.81,597.5v-17.92h6.56v23.99h-32.49c-1.62,10.83-3.93,13.16-11.6,11.76v-5.41c4.38-.94,4.83-1.51,4.83-6.38v-23.95h6.42v17.91h26.29-.01Z"/>
  <path class="st1" d="M568.62,663.69h-6.12c-.41-1.64-.54-30.58-.15-33.77h6.27v33.77Z"/>
  <path class="st1" d="M261.76,706c-2.36-1.6-3.18-4.42-5.47-6.49v12.64c-1.38.61-2.6.24-3.92.33v-19.15c2.5-.96,4.05.17,5.42,2.08,1.2,1.67,2.61,3.18,4.02,4.86,1.46-1.76,2.95-3.33,4.16-5.08,1.01-1.86,3.24-2.68,5.22-1.93v19.01c-1.25.27-2.53.32-3.8.16v-12.89c-2.49,1.93-3.18,4.95-5.63,6.46Z"/>
  <path class="st1" d="M464.21,712.5v-19.4c3.79.09,7.54-.51,11.22.45,4.54,1.18,7.04,4.95,6.81,9.89,0,4.42-3.26,8.16-7.64,8.77-3.37.6-6.77.2-10.4.29h.01ZM468.11,709.31c3.67.13,7.3.63,9.26-3.1,1.39-2.38,1.23-5.36-.42-7.57-2.3-3.11-5.66-2.46-8.84-2.3v12.97Z"/>
  <path class="st1" d="M735.05,718.52c1.1-2.38,2.1-4.67,3.21-6.9.54-.97.54-2.16-.02-3.12-1.4-2.82-2.66-5.71-4.2-9.06-.16,1.12-.24,1.72-.34,2.45-1.29.07-2.59.13-4.06.21,0,1.89-.03,3.65,0,5.41.05,2.05.82,2.59,2.86,2.14.49-.11.91-.54,1.57-.28.23,1.38.52,2.67-1.55,3.12-2.97.65-5.4-.2-6.21-2.43-.35-1.44-.46-2.93-.33-4.41-.02-1.11,0-2.21,0-3.19-.48-.75-1.22-.27-1.9-.84,1.31-2.17,3.34-3.74,5.06-5.72.92,1.08.11,2.3.78,3.42,2.06,0,4.23.07,6.4-.03,1.05-.18,2.05.48,2.3,1.52.53,1.83,1.27,3.59,2.21,5.25.52-1.24,1.07-2.35,1.47-3.51,1.18-3.45,1.15-3.46,4.97-3.06-1.21,3.4-2.62,6.73-4.22,9.96-1.03,2.21-2.19,4.38-2.99,6.68-.84,2.4-2.22,3.3-5.02,2.39h.01Z"/>
  <path class="st1" d="M563.85,699.3c1.4.3,2.89-.75,3.79.92,3.39-1.83,5.01-1.63,7.48.84.76-.59,1.56-1.12,2.4-1.58,2.12-1.13,4.75-.34,5.89,1.78.29.55.46,1.15.51,1.77.09.51.14,1.03.15,1.54.02,2.52,0,5.03,0,7.62-1.18.38-2.45.43-3.66.16v-5.38c0-.67.04-1.34,0-2-.09-1.34-.19-2.76-1.85-3.08-1.17-.23-2.76,1.55-2.8,3.13-.07,2.37-.02,4.74-.02,7.15-1.18.61-2.32.22-3.66.33v-5.72c0-.59.04-1.19,0-1.78-.12-1.41-.28-3.21-2.06-3.03-1.59.23-2.74,1.64-2.65,3.25v7.07c-1.14.32-2.35.33-3.5.02v-12.99l-.02-.02h0Z"/>
  <path class="st1" d="M650.38,712.25c-3.85.51-3.91.53-5.26-2.78-.49-1.2-1.09-1.82-2.43-1.61-.66.1-1.33.1-1.99,0-2.91-.4-5.02.14-5.81,3.54-.52,2.27-2.71.41-3.81,1.15-.47-.39-.41-.66-.3-.95,2.31-5.75,4.64-11.5,6.9-17.27.2-.88,1.07-1.44,1.96-1.25h.04c1.06.16,2.31-.53,2.99,1.1,2.48,5.99,5.08,11.92,7.72,18.06h-.01ZM640.14,697.78c-1,2.27-1.78,4.63-2.31,7.06h5.2c-.75-2.43-1.71-4.8-2.88-7.06h-.01Z"/>
  <path class="st1" d="M356.34,712.36h-3.82v-19.2c2.9,0,5.7-.19,8.47.05,3.12.27,4.87,2.5,4.81,5.58-.07,3.29-1.84,5.43-4.96,5.77-1.42.09-2.84.09-4.25.03-.28,1.25-.37,2.55-.25,3.83-.05,1.25-.01,2.51-.01,3.94h.01ZM356.56,701.03c1.79-.04,3.74.64,4.98-1.32.52-.78.42-1.81-.23-2.48-1.42-1.47-3.17-1.04-4.96-.83v3.88c.04.25.11.5.2.74h0Z"/>
  <path class="st1" d="M291.56,705.27c3.01-2.65,3.77-7.66,8.91-5.7-1.52,2.09-3.05,4.2-4.69,6.47l5.32,6.11c-5.1,1.95-6.37-2.84-9.37-5.17v5.14c-1.29.63-2.44.26-3.68.34v-19.24c1.16-.24,2.35-.26,3.51-.06v12.1h0Z"/>
  <path class="st1" d="M548.86,699.37c2.24-.22,4.4-.07,6.54-.25,3.61-.31,5.89,2.43,6.07,6.67.15,3.79-2.26,6.69-5.72,6.87-1.17.11-2.35-.07-3.43-.53v6.42c-1.12.35-2.31.39-3.46.12v-19.3h0ZM552.32,706.2v.89c0,1.22-.35,2.6,1.52,2.86,1.6.37,3.21-.6,3.62-2.2.58-1.63.28-3.45-.8-4.81-.73-1.09-2.2-1.38-3.29-.66-.64.43-1.04,1.15-1.05,1.92v1.99h0Z"/>
  <path class="st1" d="M333.19,712.33c-1.15.23-2.33.23-3.48,0v-19.13h3.4v6.77c.68.5.94-.05,1.29-.23,3.49-1.81,6.59-.16,7.04,3.76.07.59.12,1.18.13,1.77.01,2.29,0,4.59,0,6.89-1.12.59-2.23.26-3.66.29,0-2.22-.01-4.41,0-6.59.01-1.69-.19-3.38-2.13-3.81-1.26-.28-2.6,1.94-2.6,3.97v6.32h.01Z"/>
  <path class="st1" d="M680.32,700.49c1.06-.7,2.24-1.19,3.49-1.44,2.29-.32,4.4,1.27,4.72,3.56,0,.03,0,.06.01.08.59,3.15.09,6.33.29,9.48-1.19.38-2.46.44-3.68.17v-4.59c0-.74.03-1.48,0-2.22-.07-1.56-.15-3.56-2.13-3.43-1.68.24-2.86,1.8-2.62,3.48h0c.08,2.21.02,4.42.02,6.64-1.13.34-2.32.38-3.47.1v-19.11h3.36v7.29h.01Z"/>
  <path class="st1" d="M315.38,711.36c-.71,1.46-3.84,1.69-5.1.33-1.39-1.51-2.71-3.09-4.21-4.82-.71,1.95-.05,3.75-.5,5.46-1.1.27-2.26.25-3.35-.05v-19.12h3.5v12.06c2.42-1.79,2.91-4.7,5.22-5.81.94-.45,2.29-.07,3.85-.07-1.72,2.41-3.23,4.52-4.86,6.8,1.91,1.71,2.94,4.22,5.48,5.26l-.03-.03h0Z"/>
  <path class="st1" d="M385.33,712.68c-4.34.02-7.04-2.46-7.09-6.5-.05-4.38,2.62-7.12,6.96-7.14,4.39-.02,7.12,2.67,7.12,7.01,0,4.03-2.73,6.61-6.99,6.62h0ZM388.54,706.15c.04-2.24-1.47-4.29-3.19-4.32-1.77-.03-3.29,1.9-3.3,4.22,0,2.24,1.24,3.83,3.08,3.92,1.99.09,3.37-1.45,3.41-3.81h0Z"/>
  <path class="st1" d="M284.47,710.05c.74-.13,1.23-.21,1.72-.29.26,1.45-.71,2.83-2.15,3.09-.65.12-1.31-.01-1.87-.36-1.01-.47-2.16-.48-3.18-.03-1.63.41-3.25.48-4.44-1.07-.79-1.11-.9-2.57-.26-3.78.49-1.25,1.66-1.63,2.75-2.06,1.22-.48,2.49-.82,3.71-1.21-.65-3.27-1.3-3.28-6.14-.31-.77-3.72-.24-4.36,3.76-4.95,3.9-.58,5.97.97,6.09,4.21.08,2.13.02,4.27.02,6.74v.02h0ZM280.75,706.43c-1.53.84-3.23.98-3.05,2.89.08.87.96,1.12,1.72.92,2.03-.53,1.3-2.1,1.33-3.81Z"/>
  <path class="st1" d="M539.3,712.67c-4.21,0-7.03-2.72-6.96-6.7-.19-3.64,2.6-6.74,6.23-6.94.27-.01.54-.01.8,0,4.35,0,7.07,2.74,7.04,7.11-.03,3.99-2.8,6.53-7.12,6.52h.01ZM542.66,706.02c-.01-2.28-1.53-4.22-3.28-4.19-1.71.03-3.26,2.04-3.27,4.25,0,2.31,1.36,3.93,3.3,3.91,1.96-.02,3.25-1.6,3.24-3.96h.01Z"/>
  <path class="st1" d="M414.61,699.29c1.33.27,2.6-.55,3.7.59.47.49.91-.18,1.35-.36,3.55-1.43,6.22.1,6.69,3.88.11.96.16,1.92.16,2.88.02,1.99,0,3.97,0,6.04-1.22.24-2.46.25-3.68.05v-6.39c0-.37.03-.74,0-1.11-.14-1.35-.33-3-2-2.92-1.53.15-2.68,1.46-2.64,2.99-.12,2.42-.03,4.86-.03,7.29-1.15.34-2.37.39-3.54.16v-13.1h-.01Z"/>
  <path class="st1" d="M315.41,711.39c.41-.25.25-.6.22-.97-.23-2.85.4-3.85,3.09-4.86,1.23-.46,2.49-.83,3.76-1.25-.21-1.78-1-2.81-2.62-2.34-1.22.5-2.37,1.13-3.45,1.89-.91-2.97-.49-3.78,2.27-4.54,1.22-.33,2.5-.39,3.74-.19,2.53.39,3.57,1.59,3.64,4.19.05,2.07.06,4.14.09,6.21.01.06.04.11.07.16.52.6,1.13-.16,1.66.12.26,2.2-1.7,3.57-4.21,2.69-.91-.38-1.93-.4-2.84-.04-2.08.84-3.7-.39-5.45-1.1l.03.03h0ZM322.44,706.45c-1.54.74-3.26.92-3.18,2.87.04.79.92,1.14,1.72.95,2.09-.49,1.64-2.07,1.45-3.82h0Z"/>
  <path class="st1" d="M663.53,712.54c-1.24-.46-2.56.71-3.53-.79-.44-.68-.86.19-1.24.36-3.46,1.61-6.58-.02-6.86-3.82-.21-2.92-.04-5.88-.04-8.86h3.55c0,2.53.02,4.96,0,7.38-.02,1.5.1,2.93,2,3.11,1.6.15,2.68-1.24,2.69-3.3.01-2.35,0-4.7,0-7.03,1.12-.3,2.28-.38,3.43-.24v13.19Z"/>
  <path class="st1" d="M697.95,712.67c-4.29-.02-6.87-2.53-6.85-6.67.01-4.29,2.63-6.93,6.88-6.95,4.35-.01,7.04,2.69,7.02,7.08-.01,4.01-2.77,6.57-7.05,6.54h0ZM694.76,706.06c0,2.41,1.29,3.96,3.28,3.94,2-.02,3.3-1.57,3.3-3.95,0-2.21-1.59-4.25-3.31-4.26-1.72,0-3.27,2.01-3.27,4.27Z"/>
  <path class="st1" d="M453.74,706.83h-8.47c.46,3.47,2.61,3.95,8.14,1.94.77,1.86.02,2.94-1.77,3.41-2.94.76-5.89,1.11-8.36-1.2-2.35-2.2-2.32-4.96-1.47-7.8.83-2.76,2.95-4.19,6.05-4.14,2.61-.18,4.96,1.6,5.49,4.17.38,1.17.51,2.4.4,3.62h-.01ZM450.48,704.59c-.69-1.52-.83-3.06-2.75-3-1.95.06-2.14,1.59-2.6,3h5.35Z"/>
  <path class="st1" d="M496.51,706.9h-8.31c.55,3.38,2.05,3.7,8.18,1.9.67,1.87-.1,2.96-1.92,3.41-3.04.75-6.07,1.05-8.49-1.49-2.43-2.55-2.03-5.54-.92-8.49.79-2.11,3.29-3.35,6.08-3.18,2.29-.02,4.32,1.49,4.96,3.69.53,1.32.67,2.77.4,4.17h.02ZM488.08,704.53h5.15c-.39-1.42-.55-2.82-2.27-2.94-1.92-.14-2.41,1.25-2.88,2.94h0Z"/>
  <path class="st1" d="M523.94,706.9h-8.57c.74,3.49,2.85,3.94,8.12,1.88.76,1.97-.07,3.03-1.95,3.48-3.07.74-6.11.93-8.46-1.64-2.29-2.5-1.93-5.44-.84-8.34.79-2.11,3.25-3.37,6.05-3.24,2.29-.03,4.33,1.44,5.03,3.62.48,1.36.69,2.8.62,4.24h0ZM515.24,704.52h5.33c-.58-1.42-.78-2.94-2.63-2.94s-2.12,1.45-2.7,2.94Z"/>
  <path class="st1" d="M598.72,706.82h-8.41c.34,3.52,3.05,4.11,7.99,1.91.59,2.47.5,2.8-1.81,3.46-3.02.86-6.06,1.05-8.47-1.49-2.35-2.48-1.98-5.41-.96-8.31.75-2.16,3.21-3.45,5.99-3.34,2.37-.07,4.49,1.47,5.15,3.74.48,1.29.66,2.67.53,4.03h-.01ZM595.52,704.61c-.7-1.5-.82-3.15-2.84-3.04-1.88.1-2.17,1.54-2.51,3.04h5.36,0Z"/>
  <path class="st1" d="M612.96,712.31c-1.15.27-2.35.25-3.49-.04,0-2.25.04-4.53-.02-6.8-.04-1.54-.06-3.27-2.07-3.59-1.29-.21-2.69,1.81-2.71,3.68-.02,2.21,0,4.42,0,6.66-1.11.3-2.28.37-3.42.22v-12.97c1.22,0,2.45-.72,3.56.53.47.53.89-.2,1.3-.38,3.53-1.57,6.56.06,6.81,3.89.19,2.87.04,5.76.04,8.8h0Z"/>
  <path class="st1" d="M439.64,703.47c-2.38-1.1-4.64-2.62-6.48.31-.97,1.28-1.02,3.04-.14,4.38,1.77,2.74,4.31,1.37,6.61,1.03.44,2.82.27,3.07-2.29,3.42-3.81.52-6.79-.71-8.05-3.32-1.2-2.85-.68-6.14,1.34-8.48,2.27-1.89,5.4-2.36,8.12-1.21,1.61.86.51,2.35.88,3.88h.01Z"/>
  <path class="st1" d="M504,706.42c.75-1.29,1.33-2.67,1.74-4.1,1.01-3.27,1.14-3.33,4.78-2.8-1.45,4.18-3.15,8.28-5.09,12.26-.2.73-.96,1.16-1.7.96-.46-.13-.82-.48-.95-.94-1.94-3.98-3.68-8.05-5.19-12.21,3.53-.7,3.81-.51,4.87,2.81.4,1.25.93,2.45,1.54,4.03h0Z"/>
  <path class="st1" d="M393.14,699.45c2.59-.23,4.23.76,4.92,2.95.38,1.38.97,2.7,1.75,3.91.55-1.44,1.08-2.62,1.46-3.84,1.07-3.41,1.19-3.51,4.87-2.96-1.47,4.18-3.18,8.27-5.11,12.26-.22.74-1,1.15-1.73.93-.43-.13-.77-.46-.92-.88-1.98-4.02-3.73-8.15-5.24-12.37h0Z"/>
  <path class="st1" d="M616.41,702.13l-2.52-.31,5.79-6.12c.13,1.49.21,2.4.3,3.53,1.33.06,2.69.13,4,.19.45.81.17,1.54.23,2.28-1.37.7-2.84-.02-4.35.55,0,1.57-.01,3.18,0,4.79.03,2.64.75,3.19,3.27,2.5.35-.09.68-.22,1.03-.33.47,2.81.25,3.15-2.17,3.45-3.22.4-5.42-.96-5.57-3.6-.13-2.28-.03-4.58-.03-6.92h.02Z"/>
  <path class="st1" d="M667.15,702.45c-.5-.8-1.45-.06-1.96-1.16,1.6-1.69,3.28-3.47,5.1-5.38.75,1.14.23,2.22.59,3.35h3.77c.43.82.49,1.78.16,2.64-1.29.06-2.59.12-4.08.19,0,1.78-.02,3.47,0,5.15.03,2.38.72,2.92,3.01,2.36.41-.1.8-.25,1.23-.39.5,1.83.37,3.08-1.83,3.4-3.17.46-5.5-.67-5.87-3.24-.14-1.55-.18-3.1-.11-4.65-.01-.81,0-1.62,0-2.27h0Z"/>
  <path class="st1" d="M662.99,569.2c.25,1.08.46,1.98.71,3.1l-10.39,2.06c-.42-1.26-1.43-2.51.93-2.92-.38-.81-.74-1.43-.97-2.1-.79-2.08-.04-4.44,1.81-5.68,1.59-1.11,4.77-1.16,6.12-.04,1.18.98.02,2,.08,3.13-.81-.2-1.63-.32-2.46-.33-1.11,0-2.01.91-2.01,2.03,0,.14.02.28.05.42.16,1.42,1.01,1.8,2.38,1.33,1.17-.4,2.39-.64,3.74-.99h.01Z"/>
  <path class="st1" d="M707.59,699.4h2.96c.75.31.06,1.28.71,1.66,2.83-2.54,3.79-2.63,6.24-.53-.36,1.05-.73,2.14-1.1,3.24-3.54-1.49-5.37-.24-5.45,3.59-.03,1.61,0,3.23,0,4.83-1.08.35-2.24.42-3.36.21v-12.99h0Z"/>
  <path class="st1" d="M368.1,699.39h3.21c.57.49.09,1.23.48,2.06,1.15-1.58,2.39-2.93,4.56-2.21,2,.66,2.09,1.1.68,4.35-4.14-1.03-5.43.05-5.43,4.53v4.18c-1.14.31-2.35.31-3.49,0v-12.91h-.01Z"/>
  <path class="st1" d="M526.43,712.37v-19.07c1.1-.43,2.18-.08,3.39-.25v19.22c-1.1.32-2.27.36-3.39.11h0Z"/>
  <path class="st1" d="M411.29,699.42v12.89c-1.11.22-2.26.28-3.39.18v-13.01c1.11-.26,2.27-.28,3.39-.06Z"/>
  <path class="st1" d="M722.43,699.23v12.99c-1.1.31-2.26.38-3.39.19v-12.87c.98-.49,2.08-.03,3.39-.31Z"/>
  <path class="st1" d="M389.28,575.24h-5.96v-6.09h5.79c.19,2.02.24,4.06.16,6.09h0Z"/>
  <path class="st1" d="M268.43,631.58c-.14,1.76-1.68,3.08-3.44,2.94s-3.08-1.68-2.94-3.44c.13-1.65,1.5-2.93,3.16-2.95,1.74-.05,3.18,1.32,3.23,3.06,0,.13,0,.26-.01.39Z"/>
  <path class="st1" d="M276.21,631.4c.21,1.68-.97,3.21-2.65,3.43-.18.02-.36.03-.54.02-1.71.06-3.14-1.28-3.2-2.99v-.25c-.17-1.73,1.09-3.28,2.83-3.45.13-.01.26-.02.39-.01,1.71-.05,3.13,1.3,3.18,3.01v.25h0Z"/>
  <path class="st1" d="M598.76,631.86c.19,1.69-1.02,3.21-2.7,3.41-.16.02-.32.02-.47.02-1.74,0-3.15-1.43-3.14-3.17v-.13c-.19-1.66,1-3.17,2.66-3.36.18-.02.36-.03.55-.01,1.64-.07,3.04,1.2,3.11,2.85v.4h0Z"/>
  <path class="st1" d="M606.52,631.96c.18,1.65-1.01,3.12-2.66,3.3-.12.01-.25.02-.37.02-1.72.06-3.16-1.29-3.21-3.01,0-.13,0-.27.01-.4-.19-1.61.97-3.06,2.58-3.25.16-.02.32-.02.48-.02,2.03-.02,3.19,1.2,3.17,3.35h0Z"/>
  <path class="st1" d="M315.2,572.03c.11-1.73,1.59-3.04,3.32-2.93.06,0,.13,0,.19.02,1.72.18,2.98,1.72,2.8,3.45-.18,1.72-1.72,2.98-3.45,2.8h-.01c-1.69-.12-2.97-1.59-2.85-3.29v-.04h0Z"/>
  <path class="st1" d="M265.28,575.37c-1.65.13-3.09-1.1-3.22-2.75,0-.12-.01-.25,0-.37-.05-1.69,1.28-3.1,2.97-3.15h.27c1.7-.01,3.1,1.35,3.14,3.05.1,1.68-1.18,3.11-2.86,3.21h-.3Z"/>
  <path class="st1" d="M272.98,569.11c1.7-.08,3.14,1.23,3.22,2.92v.24c.06,1.65-1.22,3.04-2.87,3.1h-.38c-1.67.06-3.08-1.25-3.13-2.92v-.08c-.06-1.73,1.29-3.18,3.02-3.25h.14Z"/>
  <path class="st1" d="M696.36,612.35c-.04,1.71-1.41,3.08-3.11,3.13-1.75.06-3.21-1.31-3.27-3.05-.06-1.75,1.31-3.21,3.05-3.27h.07c1.77-.03,3.24,1.38,3.27,3.16v.04h-.01Z"/>
  <path class="st1" d="M685.26,609.14c1.75-.05,3.21,1.33,3.26,3.08.05,1.74-1.31,3.19-3.04,3.26-1.75.06-3.22-1.31-3.28-3.06s1.31-3.22,3.06-3.28Z"/>
  <path class="st1" d="M496.04,614.08c.03,1.67-1.29,3.04-2.96,3.07h-.13c-1.7.08-3.14-1.23-3.23-2.93v-.26c.06-1.74,1.52-3.11,3.27-3.05,1.7.06,3.06,1.46,3.05,3.16h0Z"/>
  <path class="st1" d="M310.63,569.11c1.65-.06,3.04,1.23,3.1,2.88,0,.14,0,.28-.01.42.03,1.61-1.25,2.94-2.85,2.97-.1,0-.21,0-.31-.01-1.62.1-3.01-1.14-3.11-2.76,0-.17,0-.33.01-.5,0-1.66,1.35-3,3-3h.17,0Z"/>
  <path class="st1" d="M485.12,617.15c-1.67.07-3.08-1.22-3.16-2.89v-.34c.06-1.72,1.5-3.08,3.22-3.02s3.08,1.5,3.02,3.22c-.06,1.67-1.42,3-3.09,3.02h.01Z"/>
  <path class="st1" d="M594.02,572.24c.06,1.65-1.23,3.04-2.87,3.1h-.16c-1.68.14-3.15-1.1-3.29-2.78,0-.09-.01-.19-.01-.28,0-1.75,1.43-3.17,3.18-3.16,1.73,0,3.14,1.39,3.16,3.12h-.01Z"/>
  <path class="st1" d="M616.67,575.34c-1.67.07-3.07-1.23-3.14-2.9v-.1c-.03-1.75,1.36-3.19,3.11-3.22,1.73-.03,3.17,1.33,3.22,3.06.09,1.65-1.17,3.07-2.83,3.16h-.37.01Z"/>
  <path class="st1" d="M624.53,569.11c1.73,0,3.13,1.4,3.13,3.12v.16c-.04,1.66-1.41,2.97-3.07,2.94h-.13c-1.68.06-3.08-1.26-3.14-2.94v-.28c.1-1.7,1.51-3.02,3.21-3h0Z"/>
  <path class="st1" d="M586.14,572.15c.17,1.59-.98,3.01-2.56,3.18-.18.02-.36.02-.54,0-1.63.1-3.03-1.15-3.12-2.78v-.21c-.08-1.71,1.24-3.16,2.95-3.24h.21c1.63-.07,3.01,1.2,3.07,2.83v.22h-.01Z"/>
  <path class="st1" d="M409.57,697.49c-1.09-.02-1.96-.93-1.93-2.02.02-1.09.93-1.96,2.02-1.93h.1c.97-.03,1.78.73,1.81,1.69,0,.13,0,.25-.03.38.06.98-.69,1.83-1.67,1.89h-.3Z"/>
  <path class="st1" d="M720.72,697.48c-1.15-.14-1.91-.7-1.91-1.97-.11-.96.57-1.83,1.53-1.94.13-.02.26-.02.39,0,.97-.11,1.84.6,1.95,1.57.01.12.01.24,0,.36.07,1.02-.7,1.91-1.73,1.98h-.23Z"/>
  <path class="st0" d="M493.3,363.12c-1.64-3.38-4.46-5.11-6.85-8.01,4.43.48,8.58,2.38,11.84,5.42.42-2.45.55-4.74,1.68-7.05,1.25,2.19,1.3,4.44,1.63,7.09,3.74-3.11,7.69-5.24,12.53-5.58-2.71,2.37-5.5,4.56-7.42,8.1,9.33-1.11,17.28.65,22.59,9.17-3.4-.64-6.2-2.62-9.49-2.96-3.21-.33-6.49-.97-9.67,1.47,11.84,4.9,16.98,14.09,18.64,25.75-3.29-6.21-7.67-11.41-13.88-14.86-1.78-1.05-3.8-1.63-5.86-1.68,6.11,7.67,8.52,17.66,6.57,27.27-2.48-8.65-4.44-17.35-12.91-23.05-1.08,16.36-1.1,32.24,1.07,48.36,14.44-8.28,29.24-13.19,45.76-8.26-16.01-.19-31.62,5.01-44.32,14.76,2.05,2.2,4.29,4.21,6.69,6.02,3.87,2.99,7.96,5.68,12.25,8.03,3.17,1.63,6.38,2.73,10.08,1.32-2.16,3.87-4.96,5.07-9.28,4-5.88-1.45-10.78-4.81-15.61-8.25-2.59-1.85-5.15-3.76-7.57-5.82-1.35-1.15-2.23-1.12-3.58,0-4.45,3.8-9.21,7.23-14.22,10.25-3.52,2.07-7.15,3.93-11.36,4.14-2.64.33-5.17-1.14-6.18-3.6,11.1-.25,18.41-7.58,26.18-14.04.83-.55,1.55-1.26,2.12-2.09-12.7-9.84-28.41-15.01-44.48-14.63,16.58-5,31.42-.19,45.99,8.18,2.2-16.08,2.09-31.96,1.11-48.38-8.54,5.62-10.36,14.45-13,23.01-1.89-9.66.59-19.66,6.78-27.31-4.49.62-8.65,2.71-11.83,5.94-3.23,2.94-5.87,6.47-7.76,10.41-.43-9.39,6.45-19.11,17.72-25.3.04-1.23-.95-1.43-1.78-1.57-3.75-.62-7.43-.67-11,1.09-1.9.75-3.85,1.36-5.84,1.83,5.49-8.44,13.24-10.32,22.64-9.17h.02Z"/>
  <polygon class="st0" points="485.98 355 485.82 354.93 485.99 354.89 485.98 355"/>
</svg>